<svg xmlns="http://www.w3.org/2000/svg" fill="none" viewBox="0 0 1261 319">
  <path fill="#0F172A" fill-rule="evenodd" d="M567.25 310.23v-.01a57.13 57.13 0 0 0 33.24-28.89 58.8 58.8 0 0 0 3.2-44.38 58.34 58.34 0 0 0-22.87-30.42 3.72 3.72 0 0 1-.93-5.12c1.14-1.66 4.49-5.22 6.14-4.05a65.73 65.73 0 0 1 23.21 27.71 66.15 66.15 0 0 1 5.31 19.5c.34 3.03 5.7 4.47 7.05 1.75l84-168.18a13.67 13.67 0 0 0 .75-10.39 13.67 13.67 0 0 0-6.75-7.92 13.3 13.3 0 0 0-10.27-.85 13.3 13.3 0 0 0-7.78 6.77l-56.5 113.65a10.57 10.57 0 0 1-14.47 5.12 10.85 10.85 0 0 1-5.42-6.49c-.86-2.8-.55-5.84.85-8.4l33.98-68.31a12.53 12.53 0 0 0-.73-12.37 12.31 12.31 0 0 0-10.94-5.64 12.1 12.1 0 0 0-10.21 6.73l-24.46 49.17a10.46 10.46 0 0 1-14.26 4.68l-.7-.33a10.9 10.9 0 0 1-4.75-14.46l45.57-91.63a14.07 14.07 0 0 0-6.16-18.81 13.63 13.63 0 0 0-10.3-.94 13.83 13.83 0 0 0-7.75 6.85l-83.05 165.36c-1.35 2.72 3 6.31 5.6 4.8a63.05 63.05 0 0 1 30.66-8.5c1.99-.04 2.56 4.72 2.61 6.73a3.59 3.59 0 0 1-3.5 3.71 56.22 56.22 0 0 0-16.68 2.78 57.06 57.06 0 0 0-34.52 28.65 58.75 58.75 0 0 0-3.54 45.18 58.75 58.75 0 0 0 29.6 34.33 57.07 57.07 0 0 0 44.77 2.64v-.02Zm677.67-125.37a30.5 30.5 0 0 1-4.85 17.01c-3.23 4.93-7.9 8.77-13.99 11.54-6.1 2.72-13.24 4.07-21.45 4.07-6.84 0-12.58-.46-17.22-1.4a65.45 65.45 0 0 1-14.49-5.06v-24.75a84.44 84.44 0 0 0 16.53 6.4 62.36 62.36 0 0 0 15.75 2.24c4.12 0 7.14-.7 9.07-2.1a6.69 6.69 0 0 0 2.88-5.56c0-1.4-.4-2.63-1.2-3.66a12.58 12.58 0 0 0-3.72-3.23c-1.69-1.08-6.24-3.28-13.64-6.61-6.71-3.05-11.75-6-15.12-8.86a27.7 27.7 0 0 1-7.45-9.84c-1.6-3.7-2.4-8.09-2.4-13.15 0-9.47 3.45-16.85 10.34-22.15 6.89-5.3 16.36-7.94 28.41-7.94 10.64 0 21.49 2.46 32.55 7.38l-8.51 21.44c-9.61-4.4-17.9-6.6-24.89-6.6-3.61 0-6.23.63-7.87 1.9a5.75 5.75 0 0 0-2.46 4.7c0 2.02 1.03 3.82 3.09 5.42 2.11 1.6 7.78 4.5 17.02 8.72 8.86 3.98 15 8.27 18.42 12.86 3.47 4.55 5.2 10.3 5.2 17.23ZM928.63 196.8l5.07 19.27h30.37l-33.96-103.22h-37.06l-33.53 103.22h30.51l5.2-19.27h33.4Zm-10.2-39.65 4.44 16.87H901c4.27-16.12 7-26.93 8.23-32.41a291.6 291.6 0 0 0 2.53-11.81 252.6 252.6 0 0 0 2.88 12.8c1.5 5.94 2.77 10.8 3.8 14.55Zm-165.26-15.12 21.03 74.04h26.43l20.75-73.9h.63c-.56 11.16-.9 18.16-.99 21.02a572.6 572.6 0 0 0-.07 7.8v45.08h25.53v-102.8h-37.06l-21.02 72.99h-.56l-21.45-72.99h-36.98v102.8H754v-44.65c0-6.99-.49-16.78-1.47-29.4h.63Zm251.85 36.63v37.4h-27.77V113.29h33.68c27.94 0 41.91 10.13 41.91 30.38 0 11.9-5.82 21.11-17.44 27.63l29.95 44.79h-31.5l-21.8-37.4h-7.03Zm0-20.88h5.21c9.7 0 14.55-4.29 14.55-12.87 0-7.08-4.76-10.61-14.27-10.61h-5.49v23.48Zm128.14 58.29h31.36l-31.85-56.74 32.42-46.06h-30.38l-21.59 31.5c-4.26 6-7.1 10.38-8.5 13.15v-44.65h-27.92v102.8h27.92v-34.39l8.22-4.92 20.32 39.3ZM89.7 184.86a30.5 30.5 0 0 1-4.86 17.01c-3.23 4.93-7.9 8.77-13.99 11.54-6.1 2.72-13.24 4.07-21.44 4.07-6.85 0-12.59-.46-17.23-1.4a65.32 65.32 0 0 1-14.48-5.06v-24.75a84.34 84.34 0 0 0 16.52 6.4 62.47 62.47 0 0 0 15.75 2.24c4.12 0 7.15-.7 9.07-2.1a6.68 6.68 0 0 0 2.88-5.56c0-1.4-.4-2.63-1.2-3.66a12.57 12.57 0 0 0-3.72-3.23c-1.69-1.08-6.23-3.28-13.64-6.61-6.7-3.05-11.74-6-15.12-8.86a27.74 27.74 0 0 1-7.45-9.84c-1.6-3.7-2.4-8.09-2.4-13.15 0-9.47 3.45-16.85 10.34-22.15 6.9-5.3 16.36-7.94 28.41-7.94 10.64 0 21.5 2.46 32.56 7.38l-8.51 21.44c-9.61-4.4-17.9-6.6-24.9-6.6-3.6 0-6.23.63-7.87 1.9a5.74 5.74 0 0 0-2.46 4.7c0 2.02 1.03 3.82 3.1 5.42 2.1 1.6 7.78 4.5 17.01 8.72 8.86 3.98 15 8.27 18.42 12.86 3.47 4.55 5.2 10.3 5.2 17.23Zm92.49-38.88c0 11.48-3.4 20.36-10.2 26.65-6.75 6.23-16.36 9.35-28.83 9.35h-7.8v34.1h-27.77v-102.8h35.57c12.99 0 22.74 2.84 29.25 8.5 6.52 5.68 9.78 13.74 9.78 24.2Zm-46.83 13.36h5.06c4.17 0 7.48-1.18 9.92-3.52 2.48-2.34 3.72-5.58 3.72-9.7 0-6.94-3.84-10.4-11.53-10.4h-7.17v23.62Zm123.22 37.47 5.06 19.27h30.38l-33.96-103.22H223l-33.54 103.22h30.52l5.2-19.27h33.4Zm-10.2-39.65 4.43 16.87h-21.87c4.27-16.12 7.01-26.93 8.23-32.41 1.27-5.49 2.11-9.43 2.53-11.81a252.6 252.6 0 0 0 2.89 12.8c1.5 5.94 2.76 10.8 3.8 14.55Zm104.59-22.57c-6.61 0-11.77 2.72-15.47 8.15-3.7 5.4-5.56 12.85-5.56 22.36 0 19.78 7.53 29.67 22.58 29.67 4.54 0 8.95-.63 13.21-1.9 4.27-1.26 8.56-2.78 12.87-4.56v23.48c-8.58 3.8-18.28 5.7-29.1 5.7-15.52 0-27.43-4.5-35.73-13.5-8.25-9-12.37-22.01-12.37-39.03 0-10.64 2-20 5.98-28.05a43.07 43.07 0 0 1 17.3-18.57c7.54-4.36 16.4-6.53 26.57-6.53 11.1 0 21.73 2.4 31.85 7.24l-8.5 21.86a95.74 95.74 0 0 0-11.4-4.5 39.8 39.8 0 0 0-12.23-1.82Zm49.74 81.49h61.03v-22.64h-33.26v-19.4h30.8v-22.3h-30.8v-16.17h33.26v-22.29h-61.03v102.8Z" clip-rule="evenodd"/>
</svg>